# xmcd
#
# Track frame offsets:
#	150
#	26320
#	53324
#	76662
#	98922
#	123454
#	144644
#	169595
#	194805
#	220118
#
# Disc length: 3349 seconds
#
# Revision: 2
# Processed by: cddbd v1.5.2PL0 Copyright (c) Steve Scherf et al.
# Submitted via: EZCDAudioConverter 8.0.2.1
#
DISCID=7d0d130a
DTITLE=Trường Vũ, Yến Phương - Độc Huyền
DYEAR=2002
DGENRE=country
TTITLE0=Yến Phương - Điệu buồn phương Nam
TTITLE1=Trường Vũ - Nhớ em
TTITLE2=Yến Phương - Độc huyền
TTITLE3=Yến Phương - Chút kỷ niệm buồn
TTITLE4=Trường Vũ - Cho vừa lòng em
TTITLE5=Yến Phương - Gió thổi bên sông
TTITLE6=Trường Vũ - Tấm ảnh không hồn
TTITLE7=Trường Vũ - Cây đàn bỏ quên
TTITLE8=Yến Phương - Thuyền xa bến đõ
TTITLE9=Yến Phương - Dòng đời
EXTD=
EXTT0=
EXTT1=
EXTT2=
EXTT3=
EXTT4=
EXTT5=
EXTT6=
EXTT7=
EXTT8=
EXTT9=
PLAYORDER=
